<?xml version="1.0" encoding="UTF-8"?>
<svg width="856px" height="598px" viewBox="0 0 856 598" version="1.1" xmlns="http://www.w3.org/2000/svg" xmlns:xlink="http://www.w3.org/1999/xlink">
    <title>undraw_special_event_4aj8-2</title>
    <g id="Page-1" stroke="none" stroke-width="1" fill="none" fill-rule="evenodd">
        <g id="undraw_special_event_4aj8-2" fill-rule="nonzero">
            <path d="M522.74378,309.48244 L522.74378,505.30947 L553.53419,505.30947 L553.53419,326.72507 L676.69584,326.72507 L676.69584,505.30947 L707.48626,505.30947 L707.48626,113.65541 L676.69584,113.65541 C666.49276,113.65541 650.83189,166.79428 650.83189,220.19024 C650.83189,260.43773 655.53224,294.93024 662.21589,309.48244 L522.74378,309.48244 Z M676.69584,309.48244 L676.39636,309.48244 C676.49694,309.26344 676.59616,309.03231 676.69584,308.80431 L676.69584,309.48244 Z" id="Shape" fill="#3F3D56"></path>
            <path d="M636.84521,16.72833 L636.84511,16.72833 C611.57122,16.72833 591.08267,39.46611 591.08267,67.51457 L591.08267,103.15045 L602.04267,103.15045 L608.38786,89.94707 L606.80154,103.15045 L677.24797,103.15045 L683.01633,91.14738 L681.57425,103.15045 L689.50576,103.15045 L689.50576,75.1699 C689.50576,42.89355 665.92883,16.72833 636.84521,16.72833 Z" id="Path" fill="#2F2E41"></path>
            <path d="M584.4095,249.55421 L556.31174,261.49576 L458.67205,340.87191 C455.081728,345.283967 452.881511,350.662271 452.35005,356.32568 C451.64761,365.45745 422.14497,413.22363 432.68163,419.54563 C443.21829,425.86763 481.15025,444.83363 483.25763,432.18963 C485.36501,419.54563 496.60407,365.45746 496.60407,365.45746 L590.73154,281.1642 L584.4095,249.55421 Z" id="Path" fill="#2F2E41"></path>
            <path d="M474.12581,421.65296 L462.18427,456.77515 C462.18427,456.77515 474.82827,470.12158 468.50627,481.36069 L468.50627,519.9951 L458.67206,519.9951 L455.86228,499.62423 C455.86228,499.62423 444.66106,519.73774 439.00363,519.9951 C427.14363,520.53461 403.65755,524.75325 402.9551,518.43125 C402.25265,512.10925 420.7401,505.94625 420.7401,505.94625 L440.40853,451.85807 L448.83785,418.84321 L474.12581,421.65296 Z" id="Path" fill="#2F2E41"></path>
            <path d="M657.46366,240.42244 C657.46366,240.42244 663.78566,302.2375 645.52211,313.4766 C627.25856,324.7157 546.47753,360.54034 546.47753,360.54034 C546.47753,360.54034 580.89728,392.85276 573.87284,400.57964 C566.8484,408.30652 535.23843,429.37984 531.02376,425.16518 C526.80909,420.95052 479.74536,370.37456 485.36491,354.21835 C490.98446,338.06214 568.95573,285.37885 568.95573,285.37885 L578.0875,252.36399 L580.89728,225.67112 L610.39992,206.70512 L657.46366,240.42244 Z" id="Path" fill="#2F2E41"></path>
            <circle id="Oval" fill="#FFB9B9" cx="625.28129" cy="67.21767" r="29.2837"></circle>
            <path d="M647.98067,79.21162 C647.98067,79.21162 646.57578,105.90448 668.35154,114.33381 C690.1273,122.76314 614.26336,177.55376 614.26336,177.55376 L614.26336,116.4411 C614.26336,116.4411 624.09758,105.90444 614.26336,89.74824 L647.98067,79.21162 Z" id="Path" fill="#FFB9B9"></path>
            <path d="M694.69318,204.59781 L689.07363,231.99312 L672.21498,326.12062 C672.21498,326.12062 686.26386,366.15992 667.29787,365.45748 C648.33188,364.75504 657.46366,321.90596 657.46366,321.90596 L667.29787,243.93469 L667.29787,213.72962 L694.69318,204.59781 Z" id="Path" fill="#FFB9B9"></path>
            <path d="M573.87284,191.25137 L567.55084,215.83691 L538.75064,285.37885 C538.75064,285.37885 519.08221,318.39371 535.23842,317.69127 C551.39463,316.98883 551.39463,285.37885 551.39463,285.37885 L584.40949,229.18334 L584.40949,197.57334 L573.87284,191.25137 Z" id="Path" fill="#FFB9B9"></path>
            <path d="M568.95573,396.36498 L592.13638,418.14074 C592.13638,418.14074 608.29259,414.62852 614.61458,433.5945 C620.93657,452.56048 625.15124,464.50203 625.15124,464.50203 L616.72192,469.41914 L606.18526,454.66782 C606.18526,454.66782 599.86326,481.36069 593.54126,483.46802 C587.21926,485.57535 555.60926,499.62423 558.41907,483.46802 L573.87283,460.98981 C573.87283,460.98981 575.98016,435.70181 569.65817,433.5945 C563.33618,431.48719 546.47752,410.41386 546.47752,410.41386 L568.95573,396.36498 Z" id="Path" fill="#2F2E41"></path>
            <path d="M658.57722,262.1982 C658.57722,262.1982 592.54749,238.31511 588.33283,240.42244 C585.195567,241.808428 581.854038,242.675718 578.43873,242.99044 L578.49862,233.39803 C578.49862,233.39803 600.27438,225.67115 612.21592,230.58826 C624.15746,235.50537 660.68455,257.28113 660.68455,257.28113 L658.57722,262.1982 Z" id="Path" fill="#3F3D56"></path>
            <path d="M618.47803,163.50484 C618.47803,163.50484 637.44403,141.72908 643.06356,128.38265 C646.618966,120.291634 653.145027,113.874432 661.2947,110.45562 C661.2947,110.45562 703.4737,119.95336 702.77129,136.81201 C702.06888,153.67066 676.07842,179.66109 676.07842,179.66109 C676.07842,179.66109 679.59064,273.08609 660.62466,271.68123 C656.533841,266.799064 653.646574,261.024534 652.19533,254.82258 C650.088,244.98837 584.76072,234.45171 584.76072,234.45171 C584.76072,234.45171 579.14117,244.28592 578.43872,240.07126 C577.73627,235.8566 584.05827,132.59735 584.05827,132.59735 L617.55569,110.45562 L618.47803,163.50484 Z" id="Path" fill="#D0CDE1"></path>
            <path d="M697.36035,130.02609 L697.83072,130.29009 C700.887431,132.005439 702.779668,135.237654 702.77918,138.74278 L702.77197,190.87321 C702.782608,193.741186 704.053157,196.459565 706.24661,198.30731 C708.95249,200.60889 711.46169,203.92545 706.28351,205.65151 C697.85418,208.46129 664.83932,222.51016 664.13688,217.59306 C663.43444,212.67596 662.02954,207.0564 664.13688,207.0564 C665.78665,207.0564 675.61632,156.6854 683.5146,135.14869 C684.490912,132.480176 686.589001,130.374472 689.253961,129.3885 C691.918921,128.402528 694.882305,128.635606 697.36035,130.02609 L697.36035,130.02609 Z" id="Path" fill="#D0CDE1"></path>
            <path d="M593.54127,130.13876 L583.70705,132.94853 L572.46795,181.41716 C572.46795,181.41716 559.12152,184.22693 563.33618,189.14404 C567.55084,194.06115 585.11194,206.70514 585.11194,206.70514 L593.54127,130.13876 Z" id="Path" fill="#D0CDE1"></path>
            <path d="M649.85464,30.71826 C645.391147,24.7244383 638.390324,21.1518624 630.91776,21.05462 L630.01931,21.05462 C612.69653,21.05462 598.65372,36.72974 598.65372,56.066 L598.65372,56.06608 L604.45812,56.06608 L605.39552,48.93094 L606.76993,56.06608 L641.19553,56.06608 L644.07974,50.02962 L643.35867,56.06608 L650.13117,56.06608 C653.291463,71.7608733 648.750653,87.4556633 636.50874,103.15045 L648.04553,103.15045 L653.81389,91.07753 L652.37182,103.15045 L674.36376,103.15045 L678.69005,75.38267 C678.69005,54.58717 666.60726,36.95301 649.85464,30.71826 Z" id="Path" fill="#2F2E41"></path>
            <path d="M61.53497,354.72833 C68.92489,338.6385 74.12191,300.50124 74.12191,256.00094 C74.12191,196.96282 56.80622,138.20894 45.52501,138.20894 L11.48111,138.20894 L11.48111,571.24771 L45.52501,571.24771 L45.52501,373.79293 L181.70072,373.79293 L181.70072,571.24771 L215.74465,571.24771 L215.74465,354.72833 L61.53497,354.72833 Z M45.52497,353.97855 C45.63518,354.23064 45.7449,354.48622 45.8561,354.72833 L45.52497,354.72833 L45.52497,353.97855 Z" id="Shape" fill="#3F3D56"></path>
            <path d="M203.43323,275.72833 C203.43323,275.72833 244.43323,292.72833 231.43323,302.72833 C218.43323,312.72833 191.43323,290.72833 192.43323,287.72833 C193.43323,284.72833 188.43323,277.72833 188.43323,277.72833 L203.43323,275.72833 Z" id="Path" fill="#9F616A"></path>
            <path d="M167.43323,141.72833 L180.43323,153.72833 L183.43323,188.72833 L193.43323,225.72833 C193.43323,225.72833 210.43323,260.72833 207.43323,267.72833 C204.43323,274.72833 210.43323,276.72833 210.43323,276.72833 L187.43323,285.72833 C187.43323,285.72833 162.43323,257.72833 162.43323,251.72833 C162.43323,245.72833 167.43323,141.72833 167.43323,141.72833 Z" id="Path" fill="#575A88"></path>
            <path d="M167.43323,141.72833 L180.43323,153.72833 L183.43323,188.72833 L193.43323,225.72833 C193.43323,225.72833 210.43323,260.72833 207.43323,267.72833 C204.43323,274.72833 210.43323,276.72833 210.43323,276.72833 L187.43323,285.72833 C187.43323,285.72833 162.43323,257.72833 162.43323,251.72833 C162.43323,245.72833 167.43323,141.72833 167.43323,141.72833 Z" id="Path" fill="#000000" opacity="0.1"></path>
            <path d="M290.43323,501.72833 C290.43323,501.72833 285.43323,524.72833 284.43323,526.72833 C283.43323,528.72833 303.43323,535.72833 303.43323,535.72833 L327.43323,518.72833 C327.43323,518.72833 317.43323,496.72833 317.43323,492.72833 L290.43323,501.72833 Z" id="Path" fill="#575A88"></path>
            <path d="M159.43323,277.72833 L166.43323,285.72833 C166.43323,285.72833 311.43323,303.72833 314.43323,331.72833 C317.43323,359.72833 338.43323,491.72833 326.43323,495.72833 C314.43323,499.72833 283.43323,514.72833 283.43323,506.72833 C283.43323,498.72833 263.43323,388.72833 267.43323,368.72833 C267.43323,368.72833 94.43323,346.72833 90.43323,321.72833 C86.43323,296.72833 94.43323,285.72833 94.43323,285.72833 L159.43323,277.72833 Z" id="Path" fill="#2F2E41"></path>
            <path d="M159.43323,277.72833 L166.43323,285.72833 C166.43323,285.72833 311.43323,303.72833 314.43323,331.72833 C317.43323,359.72833 338.43323,491.72833 326.43323,495.72833 C314.43323,499.72833 283.43323,514.72833 283.43323,506.72833 C283.43323,498.72833 263.43323,388.72833 267.43323,368.72833 C267.43323,368.72833 94.43323,346.72833 90.43323,321.72833 C86.43323,296.72833 94.43323,285.72833 94.43323,285.72833 L159.43323,277.72833 Z" id="Path" fill="#000000" opacity="0.1"></path>
            <path d="M288.43323,524.72833 C288.43323,524.72833 284.43323,515.72833 282.43323,518.72833 C280.43323,521.72833 273.43323,556.72833 280.43323,556.72833 C287.43323,556.72833 351.43323,572.72833 360.43323,570.72833 C369.43323,568.72833 386.43323,571.72833 384.43323,561.72833 C382.43323,551.72833 372.43323,550.72833 372.43323,550.72833 C372.43323,550.72833 335.43323,528.72833 333.43323,517.72833 C331.43323,506.72833 320.43323,512.72833 320.43323,512.72833 L320.43323,519.72833 C320.43323,519.72833 299.43323,535.72833 288.43323,524.72833 Z" id="Path" fill="#2F2E41"></path>
            <path d="M98.43323,65.72833 C98.43323,65.72833 105.43323,99.72833 90.43323,102.72833 C75.43323,105.72833 109.43323,125.72833 109.43323,125.72833 L131.43323,137.72833 L147.43323,121.72833 C147.43323,121.72833 132.93323,92.22833 143.93323,70.22833 C154.93323,48.22833 98.43323,65.72833 98.43323,65.72833 Z" id="Path" fill="#9F616A"></path>
            <path d="M147.43323,121.72833 L131.43323,137.72833 L109.43323,125.72833 C109.43323,125.72833 75.43323,105.72833 90.43323,102.72833 C100.08323,100.79833 100.62317,86.03833 99.79323,75.75833 C99.5223224,72.3927859 99.0683168,69.0444939 98.43323,65.72833 C98.43323,65.72833 154.93323,48.22833 143.93323,70.22833 C142.26188,73.6255897 141.102668,77.2515611 140.49329,80.98833 C137.12317,100.7583 147.43323,121.72833 147.43323,121.72833 Z" id="Path" fill="#9F616A"></path>
            <polygon id="Path" fill="#575A88" points="203.433 530.728 203.433 553.728 241.433 553.728 244.433 544.728 240.433 520.728"></polygon>
            <path d="M46.43323,297.72833 C46.43323,297.72833 46.43323,356.72833 70.43323,358.72833 C94.43323,360.72833 180.43323,371.72833 180.43323,371.72833 C180.43323,371.72833 185.43323,469.72833 194.43323,501.72833 C203.43323,533.72833 195.43323,535.72833 203.43323,537.72833 C211.43323,539.72833 245.43323,532.72833 244.43323,525.72833 C243.43323,518.72833 239.43323,341.72833 239.43323,341.72833 C239.43323,341.72833 248.43323,303.72833 128.43323,285.72833 L46.43323,297.72833 Z" id="Path" fill="#2F2E41"></path>
            <path d="M206.43323,546.72833 C206.43323,546.72833 200.43323,533.72833 199.43323,537.72833 C198.43323,541.72833 186.43323,576.72833 198.43323,579.72833 C210.43323,582.72833 248.43323,598.72833 273.43323,597.72833 C298.43323,596.72833 301.43323,595.72833 301.43323,595.72833 C301.43323,595.72833 308.43323,585.72833 299.43323,579.72833 C290.43323,573.72833 253.43323,538.72833 251.43323,534.72833 C249.43323,530.72833 234.43323,527.72833 234.43323,534.72833 C234.43323,541.72833 213.43323,555.72833 206.43323,546.72833 Z" id="Path" fill="#2F2E41"></path>
            <path d="M143.93323,70.22833 C142.26188,73.6255897 141.102668,77.2515611 140.49329,80.98833 C135.51329,83.99833 132.18323,83.22833 125.93323,83.22833 C116.66323,83.22833 112.92323,71.37833 106.93323,65.22833 C106.46323,59.51833 98.43323,65.72833 98.43323,65.72833 C98.43323,65.72833 154.93323,48.22833 143.93323,70.22833 Z" id="Path" fill="#000000" opacity="0.1"></path>
            <circle id="Oval" fill="#9F616A" cx="123.43324" cy="49.72833" r="33"></circle>
            <path d="M180.43323,153.72833 C180.43323,153.72833 175.43323,189.72833 172.43323,202.72833 C169.43323,215.72833 165.43323,275.72833 163.43323,283.72833 C161.43323,291.72833 149.43323,293.72833 125.43323,290.72833 C123.926585,290.538642 122.411322,290.425164 120.89323,290.38833 C106.11323,289.91833 89.20329,295.44833 73.553239,299.78833 C64.553239,302.28833 55.96323,304.38833 48.43323,304.72833 C37.03323,305.24833 33.69323,292.60833 34.08323,278.92833 C34.45323,266.19833 38.06323,252.54833 41.43323,247.72833 C47.5033,239.04833 41.53323,161.11833 43.77332,135.41833 L43.77332,135.40833 C44.11317,131.48833 44.64319,128.78833 45.43323,127.72833 C51.43323,119.72833 90.43323,99.72833 94.80323,100.53833 C99.16323,101.34833 136.43323,124.72833 136.43323,124.72833 C145.43323,124.72833 145.14323,114.96833 145.14323,114.96833 C145.14323,114.96833 151.43323,126.72833 163.43323,129.72833 C175.43323,132.72833 180.43323,153.72833 180.43323,153.72833 Z" id="Path" fill="#575A88"></path>
            <path d="M113.58593,283.37108 C113.58593,283.37108 178.00193,285.42214 166.71758,293.07523 C155.43323,300.72832 105.43323,307.72833 104.43323,297.72833 C103.43323,287.72833 113.58593,283.37108 113.58593,283.37108 Z" id="Path" fill="#9F616A"></path>
            <path d="M120.89319,290.3883 C121.10319,294.2283 110.77332,302.8783 107.43319,308.7283 C105.58319,311.9683 91.26327,307.6983 73.55319,299.7883 C59.9628892,293.688402 46.7790071,286.720685 34.08319,278.9283 C34.45319,266.1983 38.06319,252.5483 41.43319,247.7283 C47.50326,239.0483 41.53319,161.1183 43.77328,135.4183 L43.77328,135.4083 C44.3073095,135.137174 44.8624291,134.909763 45.43319,134.7283 L57.43319,134.7283 C98.43319,153.7283 51.43319,235.7283 51.43319,235.7283 C51.43319,235.7283 113.43319,286.7283 119.43319,288.7283 C120.242747,288.8817 120.84441,289.565783 120.89319,290.3883 L120.89319,290.3883 Z" id="Path" fill="#000000" opacity="0.1"></path>
            <path d="M57.43323,128.72833 L45.43323,128.72833 C45.43323,128.72833 34.43323,131.72833 25.43323,151.72833 C16.43323,171.72833 -16.56677,233.72833 12.43323,257.72833 C41.43323,281.72833 103.43323,309.72833 107.43323,302.72833 C111.43323,295.72833 125.43323,284.72833 119.43323,282.72833 C113.43323,280.72833 51.43323,229.72833 51.43323,229.72833 C51.43323,229.72833 98.43323,147.72833 57.43323,128.72833 Z" id="Path" fill="#575A88"></path>
            <path d="M118.35639,34.37262 C118.35639,34.37262 119.80459,14.32511 137.67026,22.49935 C155.53593,30.67359 154.37015,8.14269 148.97126,4.16122 C143.57237,0.17975 143.74333,-0.80554 123.99734,1.85833 C104.25135,4.5222 65.91562,9.03558 78.31126,48.73883 C90.7069,88.44208 101.93326,78.22838 101.93326,78.22838 C101.93326,78.22838 92.08026,42.50066 102.0637,49.30738 L112.04711,56.11411 L117.3154,54.99824 L118.35639,34.37262 Z" id="Path" fill="#2F2E41"></path>
            <path d="M855.53535,323.04616 C855.53535,304.99631 721.40585,290.36399 555.94879,290.36399 C390.49173,290.36399 256.36222,304.99631 256.36222,323.04616 C256.36222,330.04179 276.52128,336.52327 310.83251,341.83931 L310.83251,565.43893 L327.17359,565.43893 L327.17359,344.14475 C382.12794,351.22906 464.21544,355.72833 555.94879,355.72833 C648.44022,355.72833 731.13089,351.15484 786.08574,343.96905 L786.08574,565.43893 L802.42682,565.43893 L802.42682,341.62493 C835.9049,336.34931 855.53535,329.94828 855.53535,323.04616 Z" id="Path" fill="#3F3D56"></path>
            <ellipse id="Oval" fill="#F2F2F2" cx="593.48109" cy="308.72833" rx="61" ry="15"></ellipse>
            <ellipse id="Oval" fill="#D0CDE1" cx="593.48109" cy="308.72833" rx="50" ry="12.29508"></ellipse>
            <ellipse id="Oval" fill="#F2F2F2" cx="366.48109" cy="320.72833" rx="61" ry="15"></ellipse>
            <ellipse id="Oval" fill="#D0CDE1" cx="366.48109" cy="320.72833" rx="50" ry="12.29508"></ellipse>
            <ellipse id="Oval" fill="#9F616A" cx="592.06147" cy="303.07756" rx="29.08039" ry="4.59164"></ellipse>
            <ellipse id="Oval" fill="#F88378" cx="576.56469" cy="296.38142" rx="9.18328" ry="4.97428"></ellipse>
            <ellipse id="Oval" fill="#F88378" cx="573.12096" cy="296.38142" rx="9.18328" ry="4.97428"></ellipse>
            <ellipse id="Oval" fill="#F88378" cx="613.29781" cy="297.52933" rx="9.18328" ry="4.97428"></ellipse>
            <ellipse id="Oval" fill="#F88378" cx="592.25279" cy="296.38142" rx="9.18328" ry="4.97428"></ellipse>
            <ellipse id="Oval" fill="#F88378" cx="607.9409" cy="296.38142" rx="9.18328" ry="4.97428"></ellipse>
            <path d="M619.802695,293.32033 C603.20567,298.952417 584.584003,298.952417 563.937626,293.32033 L563.937626,292.54533 C563.93044,280.384162 573.461406,270.35399 585.60711,269.74086 C590.528927,269.493177 595.460243,269.499492 600.38141,269.75978 C611.30527,270.396095 619.829876,279.454277 619.802695,290.39662 L619.802695,293.32033 Z" id="Path" fill="#3F3D56"></path>
            <path d="M611.65444,314.40642 C599.388933,315.64521 587.029827,315.64521 574.76432,314.40642 C568.736722,313.814977 564.1385,308.751468 564.129,302.69493 L622.28977,302.69493 C622.280265,308.75147 617.68204,313.814977 611.65444,314.40642 L611.65444,314.40642 Z" id="Path" fill="#3F3D56"></path>
            <path d="M584.21742,276.86695 C581.52366,277.989348 578.49318,277.989348 575.79942,276.86695 C578.49318,275.744552 581.52366,275.744552 584.21742,276.86695 L584.21742,276.86695 Z" id="Path" fill="#D0CDE1"></path>
            <path d="M592.63543,280.31068 C589.94167,281.433078 586.91119,281.433078 584.21743,280.31068 C586.91119,279.188282 589.94167,279.188282 592.63543,280.31068 L592.63543,280.31068 Z" id="Path" fill="#D0CDE1"></path>
            <path d="M593.4007,274.18849 C590.706939,275.310887 587.676461,275.310887 584.9827,274.18849 C587.67646,273.066092 590.70694,273.066092 593.4007,274.18849 L593.4007,274.18849 Z" id="Path" fill="#D0CDE1"></path>
            <path d="M609.0888,274.18849 C606.39504,275.31089 603.36456,275.31089 600.6708,274.18849 C603.36456,273.06609 606.39504,273.06609 609.0888,274.18849 L609.0888,274.18849 Z" id="Path" fill="#D0CDE1"></path>
            <path d="M604.8798,277.63222 C602.18604,278.754618 599.15556,278.754618 596.4618,277.63222 C599.15556,276.509822 602.18604,276.509822 604.8798,277.63222 L604.8798,277.63222 Z" id="Path" fill="#D0CDE1"></path>
            <ellipse id="Oval" fill="#9F616A" cx="366.06147" cy="315.07756" rx="29.08039" ry="4.59164"></ellipse>
            <ellipse id="Oval" fill="#F88378" cx="350.56469" cy="308.38142" rx="9.18328" ry="4.97428"></ellipse>
            <ellipse id="Oval" fill="#F88378" cx="347.12096" cy="308.38142" rx="9.18328" ry="4.97428"></ellipse>
            <ellipse id="Oval" fill="#F88378" cx="387.29781" cy="309.52933" rx="9.18328" ry="4.97428"></ellipse>
            <ellipse id="Oval" fill="#F88378" cx="366.25279" cy="308.38142" rx="9.18328" ry="4.97428"></ellipse>
            <ellipse id="Oval" fill="#F88378" cx="381.9409" cy="308.38142" rx="9.18328" ry="4.97428"></ellipse>
            <path d="M393.802695,305.32033 C377.20567,310.952417 358.584003,310.952417 337.937626,305.32033 L337.937626,304.54533 C337.93044,292.384162 347.461406,282.35399 359.60711,281.74086 C364.528927,281.493177 369.460243,281.499492 374.38141,281.75978 C385.30527,282.396095 393.829876,291.454277 393.802695,302.39662 L393.802695,305.32033 Z" id="Path" fill="#3F3D56"></path>
            <path d="M385.65444,326.40642 C373.388933,327.64521 361.029827,327.64521 348.76432,326.40642 C342.736722,325.814977 338.1385,320.751468 338.129,314.69493 L396.28977,314.69493 C396.280265,320.75147 391.68204,325.814977 385.65444,326.40642 Z" id="Path" fill="#3F3D56"></path>
            <path d="M358.21742,288.86695 C355.52366,289.989348 352.49318,289.989348 349.79942,288.86695 C352.49318,287.744552 355.52366,287.744552 358.21742,288.86695 Z" id="Path" fill="#D0CDE1"></path>
            <path d="M366.63543,292.31068 C363.94167,293.433078 360.91119,293.433078 358.21743,292.31068 C360.911191,291.188283 363.941669,291.188283 366.63543,292.31068 Z" id="Path" fill="#D0CDE1"></path>
            <path d="M367.4007,286.18849 C364.706939,287.310887 361.676461,287.310887 358.9827,286.18849 C361.676461,285.066093 364.706939,285.066093 367.4007,286.18849 Z" id="Path" fill="#D0CDE1"></path>
            <path d="M383.0888,286.18849 C380.39504,287.31089 377.36456,287.31089 374.6708,286.18849 C377.36456,285.06609 380.39504,285.06609 383.0888,286.18849 L383.0888,286.18849 Z" id="Path" fill="#D0CDE1"></path>
            <path d="M378.8798,289.63222 C376.18604,290.754618 373.15556,290.754618 370.4618,289.63222 C373.155561,288.509823 376.186039,288.509823 378.8798,289.63222 Z" id="Path" fill="#D0CDE1"></path>
            <path d="M645.95811,304.66397 L646.09862,307.76144 L646.27785,311.77892 C646.27785,311.77892 627.82618,312.82171 624.10911,316.74952 C624.022925,316.833936 623.943626,316.925107 623.87197,317.02216 L616.48111,315.40432 L616.46279,311.76338 C616.46279,311.76338 616.56472,311.70663 616.76294,311.59969 C616.80826,311.57627 616.86489,311.5462 616.92155,311.51614 C625.965528,307.087541 635.888387,304.745903 645.95811,304.66397 L645.95811,304.66397 Z" id="Path" fill="#F88378"></path>
            <path d="M645.95811,304.66397 L646.09862,307.76144 C637.91639,308.01444 622.43143,312.89187 622.43143,312.89187 L616.7629,311.59969 C625.846075,307.112919 635.827506,304.741694 645.95811,304.66397 L645.95811,304.66397 Z" id="Path" fill="#000000" opacity="0.1"></path>
            <path d="M616.92153,311.51614 L622.43145,312.89187 L624.10913,316.74952 C624.022945,316.833936 623.943646,316.925107 623.87199,317.02216 L616.48111,315.40432 L616.46279,311.76338 C616.46279,311.76338 616.56472,311.70663 616.76294,311.59969 C616.80824,311.57627 616.86487,311.5462 616.92153,311.51614 Z" id="Path" fill="#FFFFFF" opacity="0.1"></path>
            <path d="M422.95811,317.66397 L423.09862,320.76144 L423.27785,324.77892 C423.27785,324.77892 404.82618,325.82171 401.10911,329.74952 C401.022925,329.833936 400.943626,329.925107 400.87197,330.02216 L393.48111,328.40432 L393.46279,324.76338 C393.46279,324.76338 393.56472,324.70663 393.76294,324.59969 C393.80826,324.57627 393.86489,324.5462 393.92155,324.51614 C402.965528,320.087541 412.888387,317.745903 422.95811,317.66397 L422.95811,317.66397 Z" id="Path" fill="#F88378"></path>
            <path d="M422.95811,317.66397 L423.09862,320.76144 C414.91639,321.01444 399.43143,325.89187 399.43143,325.89187 L393.7629,324.59969 C402.846075,320.112919 412.827506,317.741694 422.95811,317.66397 L422.95811,317.66397 Z" id="Path" fill="#000000" opacity="0.1"></path>
            <path d="M393.92153,324.51614 L399.43145,325.89187 L401.10913,329.74952 C401.022945,329.833936 400.943646,329.925107 400.87199,330.02216 L393.48111,328.40432 L393.46279,324.76338 C393.46279,324.76338 393.56472,324.70663 393.76294,324.59969 C393.80824,324.57627 393.86487,324.5462 393.92153,324.51614 Z" id="Path" fill="#FFFFFF" opacity="0.1"></path>
            <path d="M757.08656,211.8837 C755.512402,210.311004 753.666834,209.035913 751.63893,208.11997 L751.63893,169.26379 C751.63893,168.315031 750.869809,167.54591 749.92105,167.54591 L740.30196,167.54591 C739.353201,167.54591 738.58408,168.315031 738.58408,169.26379 L738.58408,207.37462 C731.452605,209.739968 726.637966,216.407202 726.63558,223.92071 L726.63558,307.27256 C726.63558,309.298336 727.440317,311.241141 728.872758,312.673579 C730.305198,314.106018 732.248004,314.91075 734.27378,314.91075 L754.8783,314.91075 C759.077201,314.91075 762.481103,311.506871 762.481103,307.30797 L762.481103,224.90313 C762.486991,220.018389 760.545537,215.332787 757.08656,211.8837 Z" id="Path" fill="#3F3D56"></path>
            <rect id="Rectangle" fill="#F88378" x="726.63559" y="236.13916" width="35.8455" height="47.35147"></rect>
            <path d="M752.41337,170.20113 L751.63893,170.20113 L751.63893,169.26379 C751.63893,168.315031 750.869809,167.54591 749.92105,167.54591 L740.30196,167.54591 C739.353201,167.54591 738.58408,168.315031 738.58408,169.26379 L738.58408,170.20113 L737.80964,170.20113 L737.80964,174.18397 L738.58408,174.18397 L738.58408,194.54067 L751.63893,194.54067 L751.63893,174.18397 L752.41337,174.18397 L752.41337,170.20113 Z" id="Path" fill="#F88378"></path>
            <path d="M470.07517,245.60993 C469.12646,243.58529 468.37771,242.15321 468.11562,241.66036 C452.02555,245.63102 441.29028,242.27568 439.59735,241.68225 C438.76955,243.2457 433.60102,253.23925 431.51204,262.82053 C429.62496,271.46282 430.72025,277.25653 434.76761,280.04083 L434.88754,280.12626 L434.91386,280.14384 C439.38153,283.0877 443.64341,285.69494 447.57986,287.89237 C448.110307,288.187577 448.61037,288.461893 449.08005,288.71532 L449.13031,288.74261 L449.16569,288.78748 C449.706171,289.468319 450.209208,290.178062 450.67257,290.91356 C451.542482,292.129786 452.070327,293.55704 452.20111,295.04662 L452.20111,337.97062 L451.92996,337.97634 C441.66657,338.18558 435.31387,339.92554 435.31387,341.41734 C435.31387,343.05402 442.93152,344.87784 453.86223,344.87784 C464.79294,344.87784 472.41047,343.05402 472.41047,341.41734 C472.41047,339.94768 466.16531,338.21743 456.07611,337.9844 L455.80388,337.97793 L456.05756,298.27275 C456.063604,295.584485 456.688529,292.933707 457.88391,290.52583 C458.08765,290.1211 458.3066,289.72747 458.53461,289.35655 C458.71775,289.05811 458.91179,288.76689 459.11122,288.49196 L459.14778,288.44143 L459.20257,288.41143 C459.70799,288.13543 460.244657,287.836343 460.81257,287.51417 L460.87922,287.47793 C464.60484,285.37379 468.61908,282.90655 472.81171,280.14303 C476.55501,277.67525 477.85836,272.68754 476.68552,265.31883 C475.56803,258.29294 472.47392,250.72308 470.07517,245.60993 Z" id="Path" fill="#D0CDE1"></path>
            <path d="M471.03662,279.24326 C466.64095,282.14052 463.01191,284.31346 460.23662,285.87907 L460.23411,285.87907 C456.185345,285.60267 452.11937,285.716863 448.0925,286.22007 C445.2475,284.63207 441.40938,282.35458 436.68765,279.24326 C436.64285,279.21339 436.59805,279.18352 436.55325,279.15116 L436.55325,279.14867 C432.22225,276.16926 432.11525,269.85951 433.52405,263.40788 C437.1083,263.00963 442.82318,263.18388 450.50191,265.92681 C459.59444,269.17502 469.11258,267.3381 474.62833,265.66794 C475.53435,271.3604 474.98177,276.64219 471.03662,279.24326 Z" id="Path" fill="#F88378"></path>
            <circle id="Oval" fill="#F88378" cx="444.90154" cy="259.82862" r="1.24453"></circle>
            <circle id="Oval" fill="#FFFFFF" cx="441.41686" cy="271.27828" r="1.24453"></circle>
            <circle id="Oval" fill="#F88378" cx="447.8884" cy="262.81549" r="1"></circle>
            <circle id="Oval" fill="#FFFFFF" cx="450.87527" cy="277.00311" r="1"></circle>
            <circle id="Oval" fill="#FFFFFF" cx="445.64825" cy="277.74983" r="1"></circle>
            <circle id="Oval" fill="#F88378" cx="460.83149" cy="252.85927" r="1"></circle>
            <path d="M528.4536,205.14421 C527.50489,203.11956 526.75614,201.68748 526.49405,201.19463 C510.40398,205.16529 499.66871,201.80995 497.97578,201.21652 C497.14798,202.77997 491.97945,212.77352 489.89047,222.3548 C488.00339,230.9971 489.09868,236.7908 493.14603,239.57511 L493.26597,239.66053 L493.29229,239.67811 C497.75996,242.62197 502.02184,245.22921 505.95829,247.42664 C506.488743,247.721847 506.988807,247.996163 507.45848,248.24959 L507.50874,248.27688 L507.54412,248.32175 C508.084601,249.002593 508.587638,249.712338 509.051,250.44784 C509.920923,251.664072 510.448772,253.091338 510.57955,254.58093 L510.57955,297.50493 L510.3084,297.51064 C500.04501,297.71989 493.69231,299.45984 493.69231,300.95164 C493.69231,302.58833 501.30996,304.41214 512.24067,304.41214 C523.17138,304.41214 530.78891,302.58833 530.78891,300.95164 C530.78891,299.48198 524.54375,297.75173 514.45455,297.5187 L514.18231,297.51223 L514.436,257.80705 C514.442039,255.118785 515.066965,252.468005 516.26235,250.06013 C516.46609,249.6554 516.68504,249.26177 516.91305,248.89085 C517.09619,248.59241 517.29023,248.30119 517.48966,248.02627 L517.52622,247.97573 L517.58101,247.94573 C518.08643,247.66973 518.623097,247.37064 519.19101,247.04846 L519.25766,247.01222 C522.98328,244.90808 526.99751,242.44084 531.19015,239.67732 C534.93345,237.20954 536.2368,232.22184 535.06396,224.85312 C533.94646,217.82722 530.85235,210.25735 528.4536,205.14421 Z" id="Path" fill="#D0CDE1"></path>
            <path d="M529.41505,238.77753 C525.01938,241.67479 521.39034,243.84773 518.61505,245.41334 L518.61256,245.41334 C514.563795,245.13694 510.49782,245.251133 506.47095,245.75434 C503.62595,244.16634 499.78783,241.88885 495.0661,238.77753 C495.0213,238.74766 494.9765,238.71779 494.93169,238.68543 L494.93169,238.68294 C490.60069,235.70354 490.49369,229.39378 491.9025,222.94216 C495.48675,222.5439 501.20163,222.71816 508.88036,225.46108 C517.97289,228.70929 527.49103,226.87237 533.00678,225.20221 C533.91278,230.89468 533.3602,236.17646 529.41505,238.77753 Z" id="Path" fill="#F88378"></path>
            <circle id="Oval" fill="#F88378" cx="503.27997" cy="219.3629" r="1.24453"></circle>
            <circle id="Oval" fill="#FFFFFF" cx="499.79529" cy="230.81255" r="1.24453"></circle>
            <circle id="Oval" fill="#F88378" cx="506.26683" cy="222.34976" r="1"></circle>
            <circle id="Oval" fill="#FFFFFF" cx="509.2537" cy="236.53738" r="1"></circle>
            <circle id="Oval" fill="#FFFFFF" cx="504.02668" cy="237.2841" r="1"></circle>
            <circle id="Oval" fill="#F88378" cx="519.20992" cy="212.39354" r="1"></circle>
        </g>
    </g>
</svg>
